<?xml version="1.0" encoding="utf-8"?>
<!-- Generator: Adobe Illustrator 23.0.2, SVG Export Plug-In . SVG Version: 6.00 Build 0)  -->
<svg version="1.1" id="Capa_1" xmlns="http://www.w3.org/2000/svg" xmlns:xlink="http://www.w3.org/1999/xlink" x="0px" y="0px"
	 viewBox="0 0 124 112" style="enable-background:new 0 0 124 112;" xml:space="preserve">
<style type="text/css">
	.st0{fill:#F9FBFA;}
</style>
<g>
	<path class="st0" d="M112,0H12C5.4,0,0,5.4,0,12s5.4,12,12,12h100c6.6,0,12-5.4,12-12S118.6,0,112,0z"/>
	<path class="st0" d="M112,44H12C5.4,44,0,49.4,0,56s5.4,12,12,12h100c6.6,0,12-5.4,12-12S118.6,44,112,44z"/>
	<path class="st0" d="M112,88H12c-6.6,0-12,5.4-12,12s5.4,12,12,12h100c6.6,0,12-5.4,12-12S118.6,88,112,88z"/>
</g>
</svg>
