<svg xmlns="http://www.w3.org/2000/svg" viewBox="0 0 583.56 583.11"><defs><style>.cls-1{fill:#608b8c;}.cls-2{fill:#446868;}.cls-3{fill:#fff;}</style></defs><title>Asset 12</title><g id="Layer_2" data-name="Layer 2"><g id="video-icons"><g id="rewind"><circle class="cls-1" cx="291.33" cy="291.33" r="291.33"/><path class="cls-2" d="M95.52,284.11l196,299s168,0,248.19-139.48c53.81-75.52,42.95-181.84,42.95-181.84l-7.8-37.68-104.34-57-81,66-122-79Z"/><path class="cls-3" d="M288.17,295.85c-6.87-4.86-6.87-17,0-21.87l83.45-59.08,83.45-59.08c6.87-4.86,15.45,1.21,15.45,10.93V403.07c0,9.72-8.58,15.8-15.45,10.94l-83.45-59.08Z"/><path class="cls-3" d="M100.67,295.85c-6.87-4.86-6.87-17,0-21.87l83.45-59.08,83.45-59.08C274.44,151,283,157,283,166.75V403.07c0,9.72-8.58,15.8-15.45,10.94l-83.45-59.08Z"/></g></g></g></svg>