<svg xmlns="http://www.w3.org/2000/svg" viewBox="0 0 582.66 582.66"><defs><style>.cls-1{fill:#608b8c;}.cls-2{fill:#446868;}.cls-3{fill:#fff;}</style></defs><title>Asset 13</title><g id="Layer_2" data-name="Layer 2"><g id="video-icons"><g id="mute"><circle class="cls-1" cx="291.33" cy="291.33" r="291.33"/><path class="cls-2" d="M101.29,375.34l267.23,197s175.85-34.71,211.93-245c0,0,1.39-50.25,1.73-52.75s-120.66-76.5-120.66-76.5l-51,77-57-53,25-24L307,151.29Z"/><path class="cls-3" d="M126.71,298.15a13.84,13.84,0,0,1,.34-24l53.76-58.4L295,152a13.84,13.84,0,0,1,20.58,12.27l-1.87,130.81-1.86,130.8A13.84,13.84,0,0,1,291,437.57l-112.35-67Z"/><rect class="cls-3" x="97.52" y="208.11" width="80" height="179" rx="24.95"/><rect class="cls-3" x="379" y="183.87" width="63.81" height="181.48" rx="17.18" transform="translate(-68.9 393.1) rotate(-47.63)"/><rect class="cls-3" x="379" y="183.87" width="63.81" height="181.48" rx="17.18" transform="translate(292.41 -205.2) rotate(42.37)"/></g></g></g></svg>