<svg xmlns="http://www.w3.org/2000/svg" viewBox="0 0 583.04 582.66"><defs><style>.cls-1{fill:#608b8c;}.cls-2{fill:#446868;}.cls-3{fill:#fff;}.cls-4{fill:none;stroke:#fff;stroke-miterlimit:10;stroke-width:41px;}</style></defs><title>Asset 14</title><g id="Layer_2" data-name="Layer 2"><g id="video-icons"><g id="unmute"><circle class="cls-1" cx="291.33" cy="291.33" r="291.33"/><path class="cls-2" d="M133.52,387.11l260,177.1s155.9-61.92,183.92-218c0,0,9.41-47,3.72-84.05l-229.69-112,12,38L319.3,150.7Z"/><path class="cls-3" d="M140.71,298.15a13.84,13.84,0,0,1,.34-24l53.76-58.4L309,152a13.84,13.84,0,0,1,20.58,12.27l-1.87,130.81-1.86,130.8A13.84,13.84,0,0,1,305,437.57l-112.35-67Z"/><rect class="cls-3" x="111.52" y="208.11" width="80" height="179" rx="24.95"/><path class="cls-4" d="M351.88,350.25a55.64,55.64,0,0,0,0-111.28"/><path class="cls-4" d="M352,413.61c58.19,0,119.36-49.69,119.36-119s-61.17-122-119.36-122"/></g></g></g></svg>