<svg xmlns="http://www.w3.org/2000/svg" viewBox="0 0 697.84 172.22"><defs><style>.cls-1{fill:#fff;}.cls-2{fill:#da7b93;}</style></defs><title>Asset 2</title><g id="Layer_2" data-name="Layer 2"><g id="logo-styles"><g id="row2"><path class="cls-1" d="M0,169.65V3.21H30.82A13.74,13.74,0,0,1,38.6,5.3,11.06,11.06,0,0,1,43,11.56l2.89,9.63a121.19,121.19,0,0,1,10-8.35,58.5,58.5,0,0,1,11-6.5A64.35,64.35,0,0,1,79.53,2.17,67.71,67.71,0,0,1,94.37.64a58.23,58.23,0,0,1,24.16,4.74,49.94,49.94,0,0,1,17.73,13.16A56.71,56.71,0,0,1,147.18,38.6a83.27,83.27,0,0,1,3.69,25.28V169.65H101.12V63.88q0-12.19-5.62-19T79,38a34.66,34.66,0,0,0-15.41,3.53A59.75,59.75,0,0,0,49.75,51V169.65Z"/><path class="cls-1" d="M244,.64a96.09,96.09,0,0,1,34.5,5.94,75.78,75.78,0,0,1,26.73,17,76.81,76.81,0,0,1,17.33,26.89Q328.7,66.29,328.7,86q0,19.91-6.18,35.87A77.15,77.15,0,0,1,305.19,149a76,76,0,0,1-26.73,17.18,95,95,0,0,1-34.5,6,96.12,96.12,0,0,1-34.75-6,77.58,77.58,0,0,1-27-17.18,76,76,0,0,1-17.49-27.12q-6.18-16-6.18-35.87,0-19.74,6.18-35.55a75.65,75.65,0,0,1,17.49-26.89,77.33,77.33,0,0,1,27-17A97.2,97.2,0,0,1,244,.64Zm0,134.66q17.16,0,25.27-12.12t8.11-36.83q0-24.72-8.11-36.76T244,37.56q-17.67,0-25.84,12t-8.19,36.76q0,24.72,8.19,36.83T244,135.3Z"/><path class="cls-1" d="M425.32,169.65H380.06L315.54,3.21H357a15.33,15.33,0,0,1,8.91,2.49,12.46,12.46,0,0,1,4.89,6.18l23.11,74.63q2.73,9.15,5.22,17.82t4.25,17.33q1.77-8.67,4.34-17.33t5.45-17.82L437.2,11.88A12.51,12.51,0,0,1,442,5.7a14.13,14.13,0,0,1,8.35-2.49h39.48Z"/><path class="cls-1" d="M609.25,169.65q-7.07,0-10.67-1.93t-6-8L589,150.55q-6.25,5.3-12,9.31a76.4,76.4,0,0,1-12,6.82,59.11,59.11,0,0,1-13.16,4.17,80.93,80.93,0,0,1-15.49,1.37,67.86,67.86,0,0,1-20.7-3,43.09,43.09,0,0,1-15.81-8.78,38.56,38.56,0,0,1-10-14.41,52,52,0,0,1-3.53-19.88A41.91,41.91,0,0,1,490.8,108q4.5-9.34,15.57-17t29.85-12.8Q555,73,583.57,73V65.9q0-14.75-6-21.3T560.46,38A45.51,45.51,0,0,0,546,40a65.12,65.12,0,0,0-10,4.34q-4.41,2.4-8.58,4.33a23.52,23.52,0,0,1-9.95,1.93,15,15,0,0,1-8.75-2.49,18.47,18.47,0,0,1-5.7-6.18l-9-15.57A101.09,101.09,0,0,1,527.48,6.5,117.37,117.37,0,0,1,566.88,0a71.91,71.91,0,0,1,27.2,4.9,58.55,58.55,0,0,1,20.55,13.64,59.64,59.64,0,0,1,12.92,20.78A74.85,74.85,0,0,1,632,65.64v104Zm-57.14-30.34A39.48,39.48,0,0,0,569,135.94,51.19,51.19,0,0,0,583.57,125V102.24A128.26,128.26,0,0,0,559,104.18,59.44,59.44,0,0,0,543.77,109q-5.62,2.91-7.79,6.64a15.84,15.84,0,0,0-2.16,8.09q0,8.58,4.65,12.06C541.57,138.16,546.12,139.31,552.11,139.31Z"/><path class="cls-2" d="M641.35,144.45a26.68,26.68,0,0,1,2.16-10.75,27.31,27.31,0,0,1,5.94-8.67,28.34,28.34,0,0,1,8.91-5.86A28.68,28.68,0,0,1,669.59,117a28.32,28.32,0,0,1,11.08,2.17,29.54,29.54,0,0,1,9,5.86,26.52,26.52,0,0,1,8.18,19.42,27.27,27.27,0,0,1-2.16,10.83,26.41,26.41,0,0,1-6,8.75,28.26,28.26,0,0,1-9,5.78,29.21,29.21,0,0,1-11.08,2.09,29.58,29.58,0,0,1-11.23-2.09,27.06,27.06,0,0,1-17-25.36Z"/></g></g></g></svg>